PathFileType	4	(X/Y/Z)	C:\Users\ebm\Documents\Erivelton\Erivelton2\wc3.trc
DataRate	CameraRate	NumFrames	NumMarkers	Units	OrigDataRate	OrigDataStartFrame	OrigNumFrames
150.00	150.00	      12	28	mm	150.00	779	      1245
Frame#	Time	IJ			PX			C7			T8			RAC			RAS			RPS			RAI			RPI			RLE			RME			RRS			RUS			R3M			R5M			LAC			LAS			LPS			LAI			LPI			LLE			LME			LRS			LUS			L3M			L5M			RW			LW			V_mid_elbow_r			V_mid_elbow_l			V_mid_wrist_r			V_mid_wrist_l			V_mid_trunk_low			V_mid_trunk_upp			
		X1	Y1	Z1	X2	Y2	Z2	X3	Y3	Z3	X4	Y4	Z4	X5	Y5	Z5	X6	Y6	Z6	X7	Y7	Z7	X8	Y8	Z8	X9	Y9	Z9	X10	Y10	Z10	X11	Y11	Z11	X12	Y12	Z12	X13	Y13	Z13	X14	Y14	Z14	X15	Y15	Z15	X16	Y16	Z16	X17	Y17	Z17	X18	Y18	Z18	X19	Y19	Z19	X20	Y20	Z20	X21	Y21	Z21	X22	Y22	Z22	X23	Y23	Z23	X24	Y24	Z24	X25	Y25	Z25	X26	Y26	Z26	X27	Y27	Z27	X28	Y28	Z28	

779	5.187	1624.79590	1008.22839	-17.22611	1609.27637	842.20325	-4.68674	1509.66675	1125.03345	-22.74498	1413.40161	992.31354	-16.87635	1552.95593	1059.07495	186.63301	1468.30371	903.35321	263.24136	1430.65674	935.83643	257.67569	1425.08521	846.12341	294.30649	1382.43835	878.51740	288.65341	1357.23438	813.71478	312.68314	1334.29443	793.23767	236.10870	1504.90393	599.75586	313.49744	1550.58765	535.04456	324.50107	1541.15247	617.82428	266.23828	1584.26208	558.27307	315.93744	1543.91968	1066.87573	-202.73453	1446.53455	955.62219	-286.24448	1410.16980	973.10388	-258.15628	1401.13660	897.61090	-320.13574	1358.45789	915.97241	-290.55368	1344.04810	830.58716	-350.25397	1307.84863	818.20001	-279.17569	1452.96021	585.47845	-339.61945	1498.32971	540.11554	-352.97919	1489.77905	619.03723	-298.91800	1535.72913	565.54529	-348.76419	1500.79504	300.97003	297.74445	1524.50757	298.83237	-331.25717	
780	5.193	1632.99878	1008.01166	-16.71327	1616.78491	841.94092	-4.36067	1518.07654	1124.95422	-22.42996	1421.55347	992.58002	-16.55782	1561.84204	1058.80725	187.11319	1478.96362	901.88507	264.38492	1440.90649	934.06055	259.53653	1436.65417	844.07886	295.61594	1393.71423	876.02484	290.47012	1369.38379	810.96539	314.21524	1345.80652	790.46112	237.90738	1518.98938	598.90521	313.90463	1563.87415	533.38910	324.77539	1555.46582	617.10010	267.01584	1597.97498	555.99487	316.37646	1553.05151	1066.15552	-202.62032	1456.62939	954.76642	-287.03241	1419.93774	972.42065	-259.30576	1411.35376	896.99731	-321.44016	1368.50427	915.27057	-292.19873	1354.90479	829.71906	-352.36938	1318.00684	816.92944	-282.05106	1467.63171	586.68628	-339.46936	1512.01355	540.98279	-352.36060	1504.70605	620.66547	-299.09995	1549.05457	564.24451	-347.62070	1508.17749	300.94455	297.88074	1532.07446	298.90689	-331.07196	
781	5.200	1641.18835	1007.80493	-16.25843	1624.42883	841.70880	-3.82333	1526.41248	1124.93555	-22.21374	1429.68030	992.86163	-16.18315	1570.69922	1058.61731	187.57399	1490.15686	899.90942	265.31424	1451.43323	932.01331	261.56595	1448.64380	841.53455	296.54868	1405.23206	873.15576	292.46799	1381.61658	808.07391	315.80902	1357.51331	787.66400	239.65707	1533.06165	597.67438	314.44308	1577.17175	531.63354	324.97708	1569.75647	616.00812	267.67679	1611.78503	553.62415	316.72162	1562.34253	1065.39075	-202.60571	1466.53308	954.28003	-287.72839	1429.51160	971.92108	-260.34869	1421.69751	896.82355	-322.99689	1378.48401	914.72888	-293.78250	1365.71021	829.19299	-354.51849	1327.99329	816.43079	-284.72482	1482.79480	588.51715	-339.22974	1525.98816	541.97076	-351.83307	1519.24072	622.30853	-298.75079	1563.61157	564.70959	-346.95847	1515.49414	301.01468	297.90063	1539.28894	299.20181	-331.66235	
782	5.207	1649.36389	1007.65308	-15.91915	1630.81421	841.22131	-3.23254	1534.71436	1124.81531	-21.92494	1437.81531	993.11926	-15.84305	1579.32751	1058.43652	188.02219	1501.17493	898.14563	266.18268	1462.17542	929.84808	263.41107	1460.81482	839.00287	297.33182	1416.92236	870.14655	294.32489	1394.02905	805.13361	317.33014	1369.48096	784.73334	241.28316	1547.11597	596.17963	314.89432	1590.28369	529.86969	325.32672	1584.18762	614.87933	268.41119	1625.38647	551.17310	317.25208	1571.54492	1064.70178	-202.59114	1476.43994	954.10516	-288.54694	1438.96826	971.34033	-261.35385	1432.05334	896.70941	-324.69080	1388.61646	914.07050	-295.58194	1376.98096	828.61945	-356.68042	1338.21716	816.05298	-287.41418	1498.15112	590.55231	-338.97733	1539.58716	542.99060	-351.19205	1533.43799	624.26385	-298.37741	1578.14001	564.86438	-346.34583	1522.70715	301.06876	297.93265	1546.80115	299.40985	-331.57925	
783	5.213	1657.57556	1007.50122	-15.55523	1638.51392	841.02136	-2.66141	1542.98755	1124.77759	-21.69751	1445.96045	993.40240	-15.52031	1587.93408	1058.28015	188.36235	1512.57202	896.48535	267.14185	1472.70557	927.01007	265.43988	1473.08691	836.37384	298.01471	1428.96655	867.16492	296.11633	1406.58740	802.11737	318.81619	1381.42114	781.92224	242.98628	1562.13147	596.43341	316.26880	1603.53613	528.01440	325.70901	1598.50793	613.41516	268.96817	1638.91699	548.52765	317.39127	1580.81042	1064.05530	-202.53859	1486.33691	953.67694	-288.94476	1449.18201	970.16998	-262.17819	1442.82129	896.67950	-326.62289	1398.98462	913.11292	-297.65524	1388.54626	827.79224	-358.81961	1348.73706	815.38757	-290.31317	1513.23035	592.16425	-338.77606	1553.15979	543.42206	-350.76492	1547.42883	625.49182	-297.23468	1592.28906	564.59479	-346.12231	1529.96155	301.07458	298.19830	1554.25464	299.45435	-331.33533	
784	5.220	1665.61755	1007.33990	-15.32268	1646.19275	840.95911	-2.32106	1551.28064	1124.82861	-21.41162	1454.22021	993.73346	-15.11736	1596.41479	1058.10730	188.85471	1523.93005	894.78259	267.82727	1483.73120	925.00366	267.01346	1485.50195	833.88336	298.40488	1440.87048	864.38324	297.77121	1419.25867	799.12408	320.27335	1393.31653	779.39435	244.60162	1576.28357	595.13348	316.82275	1616.43042	526.15607	326.30988	1612.82800	611.74792	269.33179	1652.42529	545.93915	318.04327	1589.78528	1063.50671	-202.48112	1496.41638	953.55145	-290.02704	1458.74500	969.28656	-263.33398	1453.86658	896.49420	-328.61661	1409.58008	911.94305	-299.86435	1400.52820	826.63513	-361.04376	1359.61841	814.27197	-293.34891	1527.82007	593.09540	-338.73209	1566.57092	543.44763	-350.35983	1560.99719	625.70355	-296.99942	1606.24292	563.72827	-345.58319	1537.23230	301.14813	298.52747	1561.84326	299.34320	-330.19867	
785	5.227	1673.85864	1007.33704	-14.88395	1654.02380	840.96814	-1.92650	1559.54761	1124.91516	-21.06303	1462.29065	994.06525	-14.76966	1605.00610	1057.88489	189.30396	1535.14819	893.15265	268.45978	1494.83374	923.00439	268.45428	1497.84094	831.54517	298.98346	1452.85461	861.58832	299.29062	1432.08032	796.17065	321.62366	1405.49585	776.16888	246.15057	1590.54028	593.59644	317.89221	1629.37036	524.15009	327.03073	1627.12476	610.00183	270.10092	1665.69043	543.10455	318.80310	1598.61829	1063.13086	-202.28333	1506.55176	953.18536	-290.97153	1468.42371	968.24475	-264.61081	1465.18542	896.08978	-330.65906	1420.37927	910.54401	-302.20026	1412.90491	825.11841	-363.03433	1370.85815	812.64581	-296.30783	1542.00232	593.11688	-338.61450	1579.90784	543.11554	-349.75638	1575.39001	626.56677	-296.80844	1620.34570	562.36517	-345.18753	1544.36658	301.31699	298.91449	1568.95923	299.42361	-330.68353	
786	5.233	1681.96899	1007.42438	-14.60449	1661.75916	840.99756	-1.60226	1567.68921	1125.00293	-20.68921	1470.35095	994.39508	-14.39874	1613.63440	1057.66125	189.74419	1546.41235	891.56317	268.85989	1505.86865	921.04462	269.69110	1510.19373	829.29138	299.57031	1464.78357	858.82617	300.75153	1444.96301	793.22742	322.83539	1417.89331	773.16815	247.59767	1604.55200	591.98608	318.75714	1642.13489	522.15601	329.10590	1641.40759	608.18121	271.03986	1678.96680	540.13513	319.68622	1607.27722	1062.83508	-201.98689	1517.02930	952.50916	-291.81271	1478.26941	967.17487	-266.21448	1476.87659	895.13843	-332.45139	1431.38147	909.02979	-304.70358	1425.45679	823.23853	-364.91769	1382.38062	810.61945	-299.24149	1556.01636	592.72430	-338.37582	1593.36731	542.29724	-348.88354	1589.67590	626.59155	-296.87308	1634.30933	560.98828	-344.57782	1552.01282	301.10587	299.04236	1576.28699	299.59924	-330.38779	
787	5.240	1690.04077	1007.47485	-14.18570	1669.45557	841.10138	-1.35123	1575.86194	1125.17102	-20.20973	1478.44006	994.69684	-14.05230	1622.30774	1057.39233	190.28714	1557.64307	889.97290	269.39041	1516.85559	919.07306	270.78946	1522.47595	827.11530	300.17053	1476.90906	855.47076	301.69745	1457.99524	790.30341	323.91806	1430.38062	770.10620	248.98450	1618.60718	590.38354	319.56772	1655.04932	519.77936	329.91888	1655.66113	606.12445	272.09128	1692.29321	536.92993	320.57184	1615.89502	1062.74365	-201.63014	1527.62988	951.52869	-292.71231	1488.19946	966.16138	-268.13684	1488.54248	893.64075	-333.96631	1442.46155	907.52191	-307.27332	1438.15259	821.25775	-366.73148	1394.09778	808.35938	-301.80038	1569.91333	592.12671	-337.90875	1606.54724	541.58685	-348.07315	1604.14880	626.41669	-297.18484	1648.10608	559.67212	-343.89966	1559.33594	301.19211	299.41190	1583.75085	299.51804	-329.13013	
788	5.247	1698.14246	1007.68878	-13.74860	1677.31323	841.25958	-1.06988	1583.88367	1125.34155	-19.60888	1486.50598	995.04486	-13.68503	1631.04492	1057.08008	190.78616	1568.83777	888.44812	269.84940	1527.73132	917.06744	271.79831	1534.75464	824.98779	300.76318	1488.98633	852.85242	302.79596	1471.07080	787.34210	324.91168	1443.01685	766.99908	250.35587	1632.71277	588.82098	320.77512	1668.06360	517.31714	330.78110	1669.62939	604.09534	272.89963	1705.55078	533.65027	321.52856	1624.39685	1062.72900	-201.24324	1538.43127	950.12939	-293.76694	1498.26709	965.04089	-270.33887	1500.59790	891.83594	-335.21729	1453.68958	905.80768	-309.86246	1450.86426	819.16211	-368.28256	1405.87256	806.10345	-304.06119	1584.06982	591.68768	-337.45657	1619.71826	540.86841	-347.26004	1618.67566	626.15784	-297.18286	1661.84155	558.38666	-343.26343	1566.59216	301.24414	299.94235	1590.82690	299.82272	-329.49084	
789	5.253	1706.18201	1007.97784	-13.23157	1685.05469	841.43524	-0.81783	1591.94275	1125.48877	-19.06571	1494.00854	995.70477	-13.43764	1639.85864	1056.72534	191.34001	1580.07166	886.95703	270.39899	1538.55444	915.03339	272.72687	1547.19397	822.84497	301.28687	1501.05237	850.16901	303.87997	1484.22412	784.34015	325.73807	1455.86621	763.70056	251.54070	1646.95105	586.62482	321.59866	1681.04395	514.82324	331.72397	1684.03186	602.08453	274.28036	1718.89978	530.20435	322.41974	1632.66199	1062.77063	-200.89624	1549.32617	948.70850	-294.67374	1508.45190	963.91742	-272.51895	1512.73511	889.57764	-336.24585	1464.96667	904.13525	-312.39188	1463.49902	817.15155	-369.70819	1417.81409	803.89423	-306.09924	1598.16809	591.22900	-336.99701	1632.85632	539.94714	-346.46365	1633.26160	625.83118	-297.03839	1675.38599	556.85199	-342.80209	1573.98657	301.21014	300.18365	1598.10974	299.92606	-329.14713	
790	5.260	1714.13232	1008.16260	-12.79011	1692.83752	841.66510	-0.58921	1599.94214	1125.64722	-18.48500	1502.11279	995.96002	-13.03605	1648.69470	1056.47229	191.85529	1591.25378	885.45111	270.83026	1549.40198	912.92682	273.60199	1559.65796	820.66675	301.74329	1513.18726	847.33185	304.70319	1497.54773	781.23364	326.40829	1469.36462	760.05432	252.72328	1661.40332	584.64783	322.43811	1694.25977	512.19275	332.66000	1698.76428	599.68671	275.60251	1732.38208	526.71863	323.33716	1641.17261	1062.86768	-200.48622	1560.31506	947.20325	-295.43256	1518.83704	962.66187	-274.80737	1525.12000	887.12384	-337.01813	1476.99536	901.87457	-314.63712	1476.23730	815.02155	-370.88461	1429.89465	801.72217	-307.90329	1611.96338	590.63696	-336.70932	1645.82751	538.91998	-345.82657	1647.58264	625.36914	-297.28540	1688.72498	555.02002	-342.55582	1581.40271	301.27774	300.53699	1605.45032	300.00977	-328.74985	
